<svg width="400" height="400" viewBox="0 0 400 400" fill="none" xmlns="http://www.w3.org/2000/svg">
  <!-- Phone outline -->
  <path d="M230 100C230 94.4772 225.523 90 220 90H180C174.477 90 170 94.4772 170 100V300C170 305.523 174.477 310 180 310H220C225.523 310 230 305.523 230 300V100Z" stroke="#1E1E3F" stroke-width="8"/>
  
  <!-- Phone button -->
  <rect x="195" y="95" width="10" height="5" rx="2.5" fill="#1E1E3F"/>
  
  <!-- Hand outline -->
  <path d="M120 250C120 250 130 270 150 290C170 310 190 320 210 330C230 340 250 350 270 350C290 350 310 340 320 330C330 320 340 310 340 300C340 290 330 280 320 270C310 260 300 250 290 240C280 230 270 220 260 220C250 220 240 230 230 240" stroke="#1E1E3F" stroke-width="4" fill="none"/>
  
  <path d="M120 250C120 250 110 240 100 230C90 220 80 210 80 200C80 190 90 180 100 180C110 180 120 190 130 200C140 210 150 220 160 230C170 240 180 250 190 250" stroke="#1E1E3F" stroke-width="4" fill="none"/>
  
  <!-- Smiley face -->
  <circle cx="200" cy="180" r="40" fill="#FF6B6B"/>
  <circle cx="185" cy="170" r="5" fill="#1E1E3F"/>
  <circle cx="215" cy="170" r="5" fill="#1E1E3F"/>
  <path d="M180 190C180 190 190 200 200 200C210 200 220 190 220 190" stroke="#1E1E3F" stroke-width="3" stroke-linecap="round"/>
  
  <!-- Stars -->
  <path d="M175 210L180 220L185 210L195 205L185 200L180 190L175 200L165 205L175 210Z" fill="#1E1E3F"/>
  <path d="M195 210L200 220L205 210L215 205L205 200L200 190L195 200L185 205L195 210Z" fill="#1E1E3F"/>
  <path d="M215 210L220 220L225 210L235 205L225 200L220 190L215 200L205 205L215 210Z" fill="#1E1E3F"/>
  <path d="M235 210L240 220L245 210L255 205L245 200L240 190L235 200L225 205L235 210Z" fill="#1E1E3F"/>
  <path d="M255 210L260 220L265 210L275 205L265 200L260 190L255 200L245 205L255 210Z" stroke="#1E1E3F" stroke-width="1" fill="none"/>
</svg>

